<svg xmlns="http://www.w3.org/2000/svg">

		<!-- Social media icons -->

	<symbol id="facebook" viewBox="0 0 33 32">
		<path d="M28.8981006,9.22187217 C28.5794574,8.03211732 27.547674,7.13401447 26.28892,7.01373316 L26,7 L6,7 C4.6382817,7 3.48846402,7.90725439 3.12203715,9.15027297 L14.2993307,16.8196344 C15.0473968,17.3329241 16.0070394,17.3966771 16.8088552,17.0057067 L17.0697749,16.8585345 L28.8981006,9.22187217 Z M29,12.7270055 L18.6969806,19.3788919 C16.9503121,20.5065847 14.7289067,20.5474074 12.9513291,19.5142576 L12.6020034,19.2933118 L3,12.7048444 L3,24 C3,25.5593922 4.18977617,26.8408974 5.71107998,26.9862668 L6,27 L26,27 C27.5593922,27 28.8408974,25.8102238 28.9862668,24.28892 L29,24 L29,12.7270055 Z M26,4 C29.3137085,4 32,6.6862915 32,10 L32,24 C32,27.3137085 29.3137085,30 26,30 L6,30 C2.6862915,30 0,27.3137085 0,24 L0,10 C0,6.6862915 2.6862915,4 6,4 L26,4 Z" />
	</symbol>

	<symbol id="twitter" viewBox="0 0 34 30">
		<path d="M16.0217162,0.8 C24.8674408,0.8 32,7.3721673 32,15.4912852 C32,23.6104031 24.8240084,30.1778251 15.9782838,30.1778251 C15.9782838,30.1778251 12.0935002,30.4008518 10.5154577,30.7567453 C9.47790681,30.9797719 7.71648319,31.5539468 6.63549994,31.9098403 C6.50037703,31.9572928 6.36525411,32 6.23013119,32 C5.68481374,32 5.14432211,31.6488517 5.0091992,31.0699316 C4.73895341,29.9595437 4.78238577,28.2275285 5.41456795,26.5429658 C2.12335996,23.8334297 0,19.885384 0,15.4912852 C0,7.36742204 7.17599153,0.8 16.0217162,0.8 Z M16.0231204,27.1614909 C23.1062793,27.1614909 28.8462408,21.9880877 28.8462408,15.5807455 C28.8462408,9.17340325 23.1062793,4 16.0231204,4 C8.93531372,4 3.2,9.16883313 3.2,15.5807455 C3.2,18.8712493 4.76628911,21.9926578 7.46197951,24.2137479 L8.8981318,25.3654243 L8.28927758,27.0746582 C8.1126634,27.545383 7.98252662,27.9704064 7.94069694,28.4 C8.7633473,28.1029406 9.54881569,27.8881439 10.1994996,27.7601798 C11.8540958,27.417419 15.4607436,27.2026222 15.851154,27.1614909 L16.0231204,27.1614909 Z M21.853698,17.7679753 C22.5272896,18.3287843 22.5769807,19.2979495 22.0082928,19.9077612 C20.6611097,21.3832878 18.7507599,22.2 16.790719,22.2 C14.7754656,22.2 12.8651158,21.3832878 11.5731451,19.9077612 C11.0044572,19.2979495 11.1093608,18.3287843 11.7277399,17.7679753 C12.346119,17.2071663 13.3289001,17.3106166 13.8975881,17.9204283 C14.6208708,18.7371405 15.6533431,19.1944992 16.790719,19.1944992 C17.0503334,19.1944992 17.3044823,19.1706702 17.550736,19.1241776 C18.3833245,18.9669854 19.1256618,18.5507199 19.6838499,17.9204283 C20.2525378,17.3106166 21.2353189,17.2561691 21.853698,17.7679753 Z M13.8,13.5934089 C13.8,14.477034 12.996,15.2 12,15.2 C11.004,15.2 10.2,14.4823893 10.2,13.5934089 L10.2,11.6065911 C10.2,10.7176107 11.004,10 12,10 C12.996,10 13.8,10.7176107 13.8,11.6065911 L13.8,13.5934089 Z M21.8,10 C22.796,10 23.6,10.7176107 23.6,11.6065911 L23.6,13.5934089 C23.6,14.4823893 22.796,15.2 21.8,15.2 C20.804,15.2 20,14.4823893 20,13.5934089 L20,11.6065911 C20,10.7176107 20.804,10 21.8,10 Z" />
	</symbol>

	<symbol id="instagram" viewBox="0 0 33 31">
		<path d="M25.4548532,11.8160499 C25.6704033,11.0794181 25.512571,10.2745868 25.0390516,9.69575914 C24.5495208,9.12751755 23.8231954,8.87266885 23.118135,9.02175944 C22.845693,9.08759432 22.5601985,9.03249748 22.3256844,8.86882648 C22.0911703,8.70515549 21.9272649,8.44660924 21.8707302,8.1511765 C21.8060322,7.85645074 21.8554306,7.54595752 22.0075008,7.29150538 C22.1595711,7.03705325 22.4011423,6.86068043 22.6763458,6.80317711 C24.1157635,6.46870119 25.6108627,6.99082637 26.5969277,8.1723401 C27.5829926,9.35385384 27.909732,11.0146754 27.4537328,12.527494 C27.3376768,12.9133543 27.0399446,13.2029958 26.6726889,13.2873134 C26.3054332,13.3716309 25.9244489,13.2378146 25.6732491,12.9362719 C25.4220493,12.6347291 25.3387973,12.2112713 25.4548532,11.825411 L25.4548532,11.8160499 Z M30.6774112,14.8280435 C30.2526275,14.9250826 29.8122047,14.7698557 29.5220458,14.4208353 C29.231887,14.0718149 29.1360741,13.5820255 29.270699,13.1359659 C29.9396583,10.9253278 29.4622964,8.49684919 28.0195399,6.77095631 C26.5767834,5.04506343 24.389436,4.28589191 22.2865318,4.78117802 C21.6486314,4.88780218 21.0440817,4.43964351 20.9064853,3.75813592 C20.768889,3.07662832 21.1457536,2.39707503 21.7667798,2.20687364 C24.7243026,1.51495604 27.798373,2.58573815 29.8252539,5.01385875 C31.8521347,7.44197934 32.5220641,10.8563562 31.5814297,13.9644239 C31.4468048,14.3964418 31.1021949,14.7310044 30.6774112,14.8280435 Z M23.5317709,14.5939583 C23.2978825,15.2398747 23.6183963,15.3241246 24.0515229,15.4926246 C25.8944768,16.1104576 27.9215095,17.5965334 27.9173958,20.2059419 C27.9173958,24.528433 22.126275,30 13.4269262,30 C4.77738697,30 2.46203058e-11,26.0762399 2.46203058e-11,20.7956916 C2.46203058e-11,17.7931166 1.74550043,14.3412084 4.77738697,11.0858835 C8.80113352,6.7353091 13.5027233,4.74373363 15.2677144,6.65105914 C16.0473424,7.49355876 16.1253052,8.95389144 15.6315408,10.692717 C15.3716648,11.5539388 16.3851812,11.0858835 16.3851812,11.0858835 C19.6336311,9.59980781 22.4922669,9.50385643 23.5317709,11.1420502 C24.0775105,11.9845498 24.0255353,13.1897923 23.5317709,14.5939583 Z M13.4052698,27.4818623 C18.8499832,26.999977 22.7023334,23.4144614 22.3644946,19.6536366 C22.0266558,15.8928119 17.4571697,13.313827 12.1600307,13.8731531 C6.86289179,14.4324792 2.86296719,17.940554 3.20080598,21.7013787 C3.53864477,25.4622035 7.96055652,27.9637476 13.4052698,27.4818623 Z M13.9250218,16.756374 C16.5476037,17.4842001 17.8708056,20.1521156 16.8074797,22.7334408 C15.7160006,25.3756132 12.6256419,26.7797792 9.97707242,25.8764324 C7.42812207,24.9777662 6.34530541,22.2841076 7.45844092,19.8151157 C8.54992008,17.4022904 11.4063904,16.054291 13.9250218,16.756374 Z M12.0041051,23.014274 C12.4957039,22.1156077 12.2358279,21.1046082 11.3998935,20.713782 C10.5151335,20.3668013 9.52596836,20.7282955 9.01769686,21.5843649 C8.49794488,22.4526076 8.73183322,23.4636071 9.56343644,23.8848569 C10.3950397,24.3061067 11.4843532,23.9129402 12.0041051,23.014274 Z M13.6911334,20.6739972 L13.6911334,20.6950597 C13.7899939,20.545523 13.8180901,20.3544787 13.7670008,20.1791891 C13.7159115,20.0038995 13.5915744,19.8647374 13.4312574,19.8034143 C13.0937615,19.6765112 12.720734,19.8306414 12.5476791,20.1684975 C12.4561695,20.3134003 12.4293813,20.4949182 12.4746431,20.6633924 C12.5199049,20.8318666 12.6324788,20.9696616 12.7815675,21.0390804 C13.1265055,21.1656149 13.506269,21.0131848 13.6911334,20.6739972 Z"/>
	</symbol>

	<symbol id="linkedin" viewBox="0 0 32 29">
		<path d="M16,2 C12.1976,2 11.7216,2.0168 10.2278,2.084 C8.73820001,2.15260001 7.7204,2.38919999 6.83,2.735 C5.89548177,3.08618264 5.04885409,3.63706398 4.34920001,4.34920001 C3.63709901,5.04888274 3.08622302,5.89550219 2.735,6.83 C2.38919999,7.7204 2.15260001,8.73820001 2.084,10.2278 C2.01540002,11.7216 2,12.1976 2,16 C2,19.8024 2.01539999,20.2784 2.084,21.7722 C2.15260001,23.2618 2.38919999,24.2796 2.735,25.17 C3.08626339,26.1044774 3.63713402,26.9510886 4.34920001,27.6508 C5.04891137,28.362866 5.8955226,28.9137366 6.83,29.265 C7.7204,29.6108 8.73820001,29.8474 10.2278,29.916 C11.7216,29.9832 12.1976,30 16,30 C19.8024,30 20.2784,29.9832 21.7722,29.916 C23.2618,29.8474 24.2796,29.6108 25.17,29.265 C26.1044978,28.913777 26.9511173,28.362901 27.6508,27.6508 C28.362901,26.9511173 28.913777,26.1044978 29.265,25.17 C29.6108,24.2796 29.8474,23.2618 29.916,21.7722 C29.9832,20.2784 30,19.8024 30,16 C30,12.1976 29.9832,11.7216 29.916,10.2278 C29.8474,8.73820001 29.6108,7.7204 29.265,6.83 C28.913777,5.89550219 28.362901,5.04888274 27.6508,4.34920001 C26.9511459,3.63706398 26.1045182,3.08618264 25.17,2.735 C24.2796,2.38919999 23.2618,2.15260001 21.7722,2.084 C20.2784,2.0168 19.8024,2 16,2 M16,5 C19.5825811,5 20.006587,5.01341792 21.4208343,5.07782384 C22.7304221,5.13820442 23.4402293,5.35557451 23.9138814,5.53939985 C24.5391559,5.78360575 24.987314,6.07477434 25.4569407,6.54305926 C25.9265675,7.01268599 26.2163943,7.46084409 26.4606001,8.08611856 C26.6430837,8.55977066 26.8631374,9.26957794 26.9221762,10.5778239 C26.9865821,11.993413 27,12.4160771 27,16 C27,19.5825811 26.9865821,20.006587 26.9221762,21.4208343 C26.8617956,22.7304221 26.6430837,23.4402293 26.4606001,23.9138814 C26.2454834,24.4967348 25.9025336,25.0239971 25.4569407,25.4569407 C24.987314,25.9265675 24.5391559,26.2163943 23.9138814,26.4606001 C23.4402293,26.6430837 22.7304221,26.8631374 21.4221761,26.9221762 C20.0079288,26.9865821 19.5839229,27 16,27 C12.4174189,27 11.9920712,26.9865821 10.5791657,26.9221762 C9.26957794,26.8617956 8.55977069,26.6430837 8.08611856,26.4606001 C7.50322416,26.2455652 6.97594472,25.9026044 6.54305926,25.4569407 C6.09739563,25.0240553 5.75443476,24.4967758 5.53939985,23.9138814 C5.35557454,23.4402293 5.13686265,22.7304221 5.07782384,21.4221761 C5.01341789,20.006587 5,19.5839229 5,16 C5,12.4174189 5.01341792,11.993413 5.07782384,10.5791657 C5.13820442,9.26957794 5.35557451,8.55977069 5.53939985,8.08611856 C5.78360575,7.46084409 6.07477434,7.01268602 6.54305926,6.54305926 C7.01268599,6.07343254 7.46084409,5.78360575 8.08611856,5.53939985 C8.55977066,5.35557454 9.26957794,5.13686265 10.5778239,5.07782384 C11.993413,5.01341789 12.4160771,5 16,5 M16.1,20.2 C13.8356325,20.2 12,18.3643675 12,16.1 C12,13.8356325 13.8356325,12 16.1,12 C18.3643675,12 20.2,13.8356325 20.2,16.1 C20.2,18.3643675 18.3643675,20.2 16.1,20.2 M16.0933333,9.15333334 C12.2604772,9.15333334 9.15333334,12.2604772 9.15333334,16.0933333 C9.15333334,19.9261895 12.2604772,23.0333333 16.0933333,23.0333333 C19.9261895,23.0333333 23.0333333,19.9261895 23.0333333,16.0933333 C23.0333333,12.2604772 19.9261895,9.15333334 16.0933333,9.15333334 M25.1173333,9.08266666 C25.1173333,10.0767792 24.3114459,10.8826667 23.3173333,10.8826667 C22.3232208,10.8826667 21.5173333,10.0767792 21.5173333,9.08266666 C21.5173333,8.08855411 22.3232208,7.28266666 23.3173333,7.28266666 C24.3114459,7.28266666 25.1173333,8.08855411 25.1173333,9.08266666"/>
	</symbol>
	
	<symbol id="vimeo" viewBox="0 0 30 30">
		<path d="M16,2 C8.26801351,2 2,8.26801351 2,16 C2,23.7319866 8.26801351,30 16,30 C23.7319866,30 30,23.7319866 30,16 C30,12.2869692 28.5250042,8.72601436 25.899495,6.10050506 C23.2739856,3.47499576 19.7130308,2 16,2 Z M16,4.79999825 C18.8766195,4.79885256 21.6416748,5.91290385 23.714,7.90800002 C21.5748317,9.16268224 19.3080291,10.185794 16.952,10.96 C15.7794818,8.93955614 14.4351843,7.02381507 12.934,5.234 C13.9307462,4.94699632 14.9627569,4.80091261 16,4.79999825 L16,4.79999825 Z M10.246,6.41 C11.7127557,8.08790737 13.0291569,9.8915175 14.18,11.8 C11.4319408,12.4823659 8.61150474,12.8302197 5.78,12.836 L5.276,12.836 C6.07008286,10.1474962 7.84351055,7.85452915 10.246,6.41 L10.246,6.41 Z M7.6,23.434 C5.77825556,21.3882543 4.78051094,18.7392423 4.80000002,16 L4.80000002,15.594 L5.752,15.594 C9.0663256,15.5643701 12.3619511,15.0935664 15.552,14.194 C16,15.048 16.42,15.93 16.826,16.84 C14.6440877,17.6091898 12.6120106,18.750753 10.82,20.214 L10.4,20.55 C9.40196486,21.4463291 8.46644557,22.409914 7.6,23.434 L7.6,23.434 Z M16,27.2 C13.7685238,27.2049498 11.5874749,26.5364851 9.742,25.282 C10.4235769,24.5002312 11.1529767,23.76148 11.926,23.07 L12.374,22.692 C14.0304298,21.2988561 15.9285616,20.2216662 17.974,19.514 C18.8158699,21.7903888 19.4713605,24.1314266 19.934,26.514 C18.6737242,26.9741522 17.3416385,27.2064376 16,27.2 Z M22.482,25.114 C22.0239611,22.9951883 21.4253026,20.9092381 20.69,18.87 L21.166,18.87 C21.2211695,18.8563607 21.2788305,18.8563607 21.334,18.87 L22.3,18.87 C23.7733008,18.8742158 25.2355043,19.1250145 26.626,19.612 C25.8620592,21.8385055 24.4110415,23.7650259 22.482,25.114 L22.482,25.114 Z M22.3,16 L21.432,16 C21.2507166,15.9771604 21.0672834,15.9771604 20.886,16 C20.5054869,16.0233698 20.1267717,16.0701248 19.752,16.14 L19.612,16.14 C19.206,15.202 18.786,14.292 18.324,13.34 C20.8308727,12.4790794 23.2385477,11.3526818 25.506,9.98 C26.6308132,11.7851156 27.2183885,13.8731928 27.2,16 L27.2,16.714 C25.6133574,16.2243051 23.9604101,15.9834471 22.3,16 L22.3,16 Z"/>
	</symbol>

        <symbol id="pinterest" viewBox="0 0 32 32">
		<path d="M28.2639217,0 C28.9504695,0.864835976 29.5069773,2.22828813 29.5069773,4.91343566 C29.5069773,7.59858319 28.2639217,10.9435806 25.1611346,13.5732831 C27.4459188,13.8365298 28.8571962,12.5987554 30,11.5299354 C29.5929849,14.4934161 28.1082573,17.6320236 25.1810828,19.7106568 L24.74372,20.0053622 C23.2546036,24.4997737 19.1065717,27.782498 14.1635498,27.9896099 L13.6666667,28 C7.37318929,28 2.24360606,23.0167767 2.00842452,16.7808377 L2.0005195,16.2220755 L2.00377321,16.1007928 C2.12197409,9.97053952 6.97044659,4.99880873 13.0509312,4.68263644 C16.8424966,4.18776909 21.0508729,3.04430623 22.0952695,0.505352634 L22.2249159,0.75574821 C22.4320201,1.20099304 22.7977458,2.2014679 22.6282858,3.4437739 C22.4021542,5.10153852 20.8929461,6.66212481 20.293633,6.66212481 C23.9631183,6.66212481 26.341505,3.25567104 28.2639217,0 Z M8,19 L8,21 C8,22.1045695 8.8954305,23 10,23 L18,23 C19.1045695,23 20,22.1045695 20,21 L20,19 L14,19 L20,13 L20,11 C20,9.8954305 19.1045695,9 18,9 L8,9 L8,11 C8,12.1045695 8.8954305,13 10,13 L14,13 L8,19 Z"/>
	</symbol>

	<symbol id="youtube" viewBox="0 0 32 30">
		<path d="M11.9965705,1.30965112 C12.7775866,1.5067466 13.4458683,1.81093442 14.0075093,2.23588594 C14.5680196,2.6630434 15.0167853,3.25021682 15.3075102,3.93683129 C15.6121979,4.65116 15.7675886,5.5318236 15.7675886,6.56515075 C15.7675886,7.68962033 15.5370416,8.63066578 15.0810257,9.3905657 C14.6229785,10.1504656 13.9475874,10.7577019 13.0467274,11.2441746 C14.2736033,11.6395048 15.180557,12.3378836 15.7848543,13.3256395 C16.3911828,14.3282062 16.6857142,15.5278682 16.6857142,16.9109544 C16.6857142,18.0502346 16.510011,19.0220406 16.130167,19.8423224 C15.7631312,20.6592176 15.2237775,21.3631852 14.5589941,21.8930268 C13.9089936,22.4216528 13.1371181,22.804451 12.2971957,23.0585104 C11.4538914,23.3146821 10.5840754,23.4447264 9.7103971,23.4447264 L0,23.4447264 L0,1.03622387 L9.39555314,1.03622387 C10.3471944,1.02369179 11.2114918,1.1148342 11.9965705,1.30965112 Z M24.2744262,20.2020302 C25.1587245,20.2020302 25.9227942,19.9731754 26.5666354,19.5096575 C27.2014875,19.06008 27.5857698,18.5651961 27.7352127,18.0540485 L31.6128669,18.0540485 C31.0094765,20.0370689 30.0431528,21.461312 28.7667069,22.3139991 C27.4936319,23.1817883 25.9441433,23.6 24.1519503,23.6 C22.8979769,23.6 21.7788394,23.3990261 20.7484689,22.9808144 C19.7792527,22.5857705 18.9013726,21.98412 18.1719806,21.2150318 C17.4764524,20.4564423 16.9393563,19.5421851 16.5584451,18.4734219 C16.1797811,17.4046587 16,16.2278576 16,14.9569588 C16,13.712779 16.2022537,12.5719905 16.6033904,11.5032274 C16.982627,10.4747952 17.5524879,9.5328383 18.280973,8.73025164 C19.0225701,7.94029625 19.8731595,7.34434462 20.8821811,6.88082668 C21.8912026,6.41730875 22.980002,6.21052632 24.2081318,6.21052632 C25.5710975,6.21052632 26.7396747,6.46493841 27.7734162,7.02023057 C28.7519631,7.53683178 29.6026925,8.27886591 30.2600139,9.18912278 C30.919586,10.0964098 31.3836459,11.1407773 31.6679247,12.3175784 C31.9522038,13.4792775 32.0420943,14.7025467 31.9825419,16.0036496 L20.4619427,16.0036496 C20.4619427,17.3047526 20.8810574,18.5315069 21.5260222,19.2018072 C22.1744106,19.8686225 23.0905453,20.2020302 24.2744262,20.2020302 Z M8.93720137,19.5745915 C9.36035296,19.5745915 9.76449774,19.5290203 10.1456343,19.4333208 C10.5327729,19.3421784 10.8768962,19.1826791 11.1629987,18.9776087 C11.443099,18.7725383 11.683185,18.4797433 11.856247,18.092388 C12.029309,17.7278183 12.1093377,17.226535 12.1093377,16.6341093 C12.1093377,15.4948291 11.8162327,14.6745473 11.256032,14.173264 C10.6828267,13.6867914 9.93555899,13.4441247 9.00222467,13.4441247 L4.32154801,13.4441247 L4.32154801,19.5962379 L8.93620103,19.5962379 L8.93620103,19.5506667 L8.93720137,19.5745915 Z M26.4619401,10.9912544 C25.9554036,10.4068036 25.1086559,10.0923623 24.0761423,10.0923623 C23.4022006,10.0923623 22.8449024,10.205151 22.3966878,10.4535141 C21.9614337,10.6813702 21.6050221,10.985558 21.3306932,11.3501277 C21.0563643,11.7146973 20.8738384,12.079267 20.7658348,12.4894079 C20.6578313,12.8847381 20.5930292,13.2493078 20.5714285,13.5683063 L27.4285714,13.5683063 C27.3281282,12.429026 26.9533558,11.5939336 26.4489796,11.0015079 L26.4489796,11.0163186 L26.4619401,10.9912544 Z M10.5977962,9.43157979 C11.096975,9.02143891 11.337061,8.33787077 11.337061,7.39910388 C11.337061,6.87617427 11.2440277,6.45008345 11.096975,6.11399579 C10.9346079,5.79566431 10.705324,5.5282754 10.429736,5.33586741 C10.1496357,5.14788617 9.82952103,5.01686895 9.46939202,4.9450943 C9.0999483,4.8668045 8.72476462,4.82903544 8.34899068,4.83230556 L4.30854335,4.83230556 L4.30854335,10.0581839 L8.69711539,10.0581839 C9.46238951,10.0570446 10.0976171,9.85311346 10.5977962,9.43157979 Z M29.2571428,0.00328662005 L29.2571428,3.18966561 L19.2,3.18966561 L19.2,-1.22124533e-13 L29.2571428,0.00328662005 Z"/>
	</symbol>
	
	<symbol id="mix" viewBox="0 0 32 32">
	   <path d="M32,0v17.95c0,1.69-1.43,3.12-3.2,3.12c-1.77,0-3.2-1.42-3.2-3.12v-1.62c0-1.81-1.43-3.23-3.2-3.24
	c-1.77,0.01-3.2,1.43-3.2,3.24v4.61c-0.03,1.69-1.46,3.12-3.2,3.12c-1.79,0-3.22-1.42-3.2-3.12V8.48c-0.02-1.78-1.45-3.2-3.2-3.24
	C7.9,5.27,6.52,6.57,6.4,8.23c-0.01,0.06-0.01,0.14,0,0.25v2.96v0.03v17.42C6.4,30.58,4.97,32,3.2,32C1.43,32,0,30.58,0,28.88V17.45
	v-0.03V0h29.98h1.77H32z"/>
	</symbol>
	
	<symbol id="buffer" viewBox="0 0 32 32">	
		<path d="M.556,15.342,3.338,14a.954.954,0,0,1,1.091.025c.458.225,10.229,4.942,10.229,4.942a3.506,3.506,0,0,0,2.682,0s10.038-4.85,10.4-5.017a.689.689,0,0,1,.791-.008c.342.167,2.916,1.408,2.916,1.408.741.358.741.942-.017,1.292L17.333,23.45a3.506,3.506,0,0,1-2.682,0L.556,16.642C-.185,16.283-.185,15.7.556,15.342ZM.573,8.375l14.094,6.808a3.506,3.506,0,0,0,2.682,0L31.444,8.375c.741-.358.741-.942,0-1.3L17.349.267a3.506,3.506,0,0,0-2.682,0L.573,7.075C-.169,7.433-.169,8.017.573,8.375Zm30.871,15.25s-2.574-1.242-2.916-1.408a.689.689,0,0,0-.791.008c-.358.167-10.388,5.025-10.388,5.025a3.506,3.506,0,0,1-2.682,0S4.9,22.533,4.438,22.308a.954.954,0,0,0-1.091-.025L.564,23.625c-.741.358-.741.942,0,1.3l14.094,6.808A3.109,3.109,0,0,0,16,32a3.237,3.237,0,0,0,1.341-.267l14.094-6.808C32.185,24.567,32.185,23.983,31.444,23.625Z" />
	</symbol>
	
	
</svg>
